<?xml version="1.0" encoding="utf-8"?>
<!-- Generator: Adobe Illustrator 14.0.0, SVG Export Plug-In . SVG Version: 6.00 Build 43363)  -->
<!DOCTYPE svg PUBLIC "-//W3C//DTD SVG 1.1//EN" "http://www.w3.org/Graphics/SVG/1.1/DTD/svg11.dtd">
<svg version="1.1" id="Layer_1" xmlns="http://www.w3.org/2000/svg" xmlns:xlink="http://www.w3.org/1999/xlink" x="0px" y="0px"
	 width="149.14px" height="35.75px" viewBox="-7 -5 149.14 35.75" enable-background="new -7 -5 149.14 35.75" xml:space="preserve"
	>
<g>
	<path fill="#34495E" d="M42.819,5.546C42.914,5.559,43,5.583,43.076,5.618c0.076,0.036,0.15,0.088,0.222,0.156
		c0.072,0.068,0.152,0.158,0.24,0.27l9.108,11.604c-0.032-0.279-0.054-0.554-0.066-0.822c-0.012-0.268-0.018-0.518-0.018-0.75V5.528
		h2.844v17.353h-1.668c-0.256,0-0.468-0.041-0.636-0.121c-0.168-0.079-0.332-0.223-0.492-0.432l-9.072-11.556
		c0.024,0.256,0.042,0.51,0.054,0.762c0.012,0.252,0.018,0.482,0.018,0.69v10.656h-2.844V5.528h1.692
		C42.602,5.528,42.722,5.534,42.819,5.546z"/>
	<path fill="#34495E" d="M75.555,14.205c0,1.272-0.213,2.45-0.637,3.534s-1.02,2.021-1.789,2.814
		c-0.768,0.791-1.691,1.41-2.771,1.854c-1.08,0.444-2.275,0.666-3.588,0.666s-2.51-0.222-3.594-0.666
		c-1.084-0.443-2.012-1.062-2.784-1.854c-0.772-0.793-1.37-1.73-1.794-2.814s-0.636-2.262-0.636-3.534
		c0-1.272,0.212-2.45,0.636-3.534s1.022-2.022,1.794-2.814c0.772-0.792,1.7-1.41,2.784-1.854s2.281-0.666,3.594-0.666
		s2.508,0.224,3.588,0.672c1.08,0.448,2.004,1.066,2.771,1.854c0.77,0.788,1.365,1.724,1.789,2.808S75.555,12.932,75.555,14.205z
		 M72.243,14.205c0-0.952-0.127-1.806-0.379-2.562c-0.252-0.756-0.613-1.398-1.086-1.926s-1.045-0.932-1.721-1.212
		c-0.678-0.28-1.439-0.42-2.287-0.42s-1.611,0.14-2.292,0.42c-0.68,0.28-1.258,0.684-1.733,1.212
		c-0.477,0.528-0.842,1.17-1.099,1.926c-0.256,0.756-0.384,1.61-0.384,2.562s0.128,1.805,0.384,2.562
		c0.257,0.756,0.622,1.396,1.099,1.92c0.476,0.524,1.054,0.926,1.733,1.206c0.681,0.279,1.444,0.42,2.292,0.42
		s1.609-0.141,2.287-0.42c0.676-0.28,1.248-0.682,1.721-1.206s0.834-1.164,1.086-1.92C72.116,16.01,72.243,15.157,72.243,14.205z"/>
	<path fill="#34495E" d="M86.066,20.504c0.729,0,1.362-0.065,1.902-0.197c0.54-0.133,1.054-0.314,1.542-0.547v-3.155h-2.172
		c-0.208,0-0.372-0.058-0.492-0.175c-0.12-0.115-0.18-0.258-0.18-0.426V14.18h5.771v7.02c-0.439,0.32-0.897,0.599-1.374,0.834
		c-0.476,0.236-0.983,0.431-1.523,0.582c-0.54,0.152-1.118,0.267-1.734,0.343c-0.616,0.075-1.28,0.113-1.992,0.113
		c-1.264,0-2.428-0.22-3.492-0.66c-1.063-0.439-1.983-1.052-2.76-1.836c-0.776-0.783-1.382-1.72-1.817-2.808
		c-0.437-1.088-0.654-2.276-0.654-3.564c0-1.304,0.212-2.5,0.636-3.588c0.424-1.088,1.026-2.024,1.806-2.808
		c0.78-0.784,1.727-1.392,2.839-1.824c1.111-0.432,2.359-0.648,3.743-0.648c1.416,0,2.643,0.21,3.679,0.63s1.914,0.966,2.634,1.638
		L91.49,9.068c-0.184,0.296-0.428,0.444-0.731,0.444c-0.192,0-0.389-0.064-0.588-0.192c-0.256-0.152-0.519-0.304-0.786-0.456
		c-0.269-0.152-0.564-0.284-0.888-0.396c-0.324-0.112-0.688-0.204-1.093-0.276c-0.403-0.072-0.869-0.108-1.397-0.108
		c-0.856,0-1.63,0.144-2.322,0.432c-0.692,0.288-1.282,0.7-1.77,1.236c-0.488,0.536-0.864,1.18-1.128,1.932
		c-0.265,0.752-0.396,1.592-0.396,2.52c0,1,0.14,1.889,0.42,2.67c0.28,0.779,0.672,1.438,1.176,1.973
		c0.504,0.537,1.104,0.947,1.801,1.23C84.482,20.362,85.242,20.504,86.066,20.504z"/>
	<path fill="#34495E" d="M112.094,14.205c0,1.272-0.213,2.45-0.637,3.534s-1.02,2.021-1.788,2.814
		c-0.768,0.791-1.691,1.41-2.771,1.854c-1.08,0.444-2.276,0.666-3.588,0.666c-1.312,0-2.511-0.222-3.595-0.666
		c-1.084-0.443-2.012-1.062-2.783-1.854c-0.772-0.793-1.37-1.73-1.794-2.814c-0.425-1.084-0.637-2.262-0.637-3.534
		c0-1.272,0.212-2.45,0.637-3.534c0.424-1.084,1.021-2.022,1.794-2.814c0.771-0.792,1.699-1.41,2.783-1.854s2.282-0.666,3.595-0.666
		c1.312,0,2.508,0.224,3.588,0.672c1.08,0.448,2.004,1.066,2.771,1.854c0.769,0.788,1.364,1.724,1.788,2.808
		S112.094,12.932,112.094,14.205z M108.782,14.205c0-0.952-0.126-1.806-0.378-2.562c-0.252-0.756-0.614-1.398-1.086-1.926
		c-0.473-0.528-1.046-0.932-1.722-1.212c-0.677-0.28-1.438-0.42-2.286-0.42c-0.849,0-1.612,0.14-2.292,0.42
		c-0.681,0.28-1.259,0.684-1.734,1.212s-0.842,1.17-1.098,1.926c-0.257,0.756-0.385,1.61-0.385,2.562s0.128,1.805,0.385,2.562
		c0.256,0.756,0.622,1.396,1.098,1.92s1.054,0.926,1.734,1.206c0.68,0.279,1.443,0.42,2.292,0.42c0.848,0,1.609-0.141,2.286-0.42
		c0.676-0.28,1.249-0.682,1.722-1.206c0.472-0.524,0.834-1.164,1.086-1.92C108.656,16.01,108.782,15.157,108.782,14.205z"/>
	<path fill="#34495E" d="M117.867,20.217h6.947v2.664h-10.176V5.528h3.229V20.217z"/>
	<path fill="#34495E" d="M130.681,22.881h-3.239V5.528h3.239V22.881z"/>
</g>
<path fill-rule="evenodd" clip-rule="evenodd" fill="#34495E" d="M39.014,84.25"/>
<path fill-rule="evenodd" clip-rule="evenodd" fill="#34495E" d="M15.642,18.835"/>
<line fill-rule="evenodd" clip-rule="evenodd" fill="#666666" x1="15.642" y1="18.835" x2="24.804" y2="18.857"/>
<polygon fill-rule="evenodd" clip-rule="evenodd" fill="#34495E" class="main-color" points="18.236,-2.968 1.962,10.075 23.254,8.85 "/>
<polygon fill-rule="evenodd" clip-rule="evenodd" fill="#34495E" points="23.254,8.85 11.263,28.718 27.694,26.381 "/>
<polygon fill-rule="evenodd" clip-rule="evenodd" fill="#666666" points="23.254,8.85 32.34,8.988 27.694,26.381 "/>
<polygon fill-rule="evenodd" clip-rule="evenodd" fill="#1ABC9C" points="18.236,-2.968 32.34,8.988 23.254,8.85 "/>
<polygon fill-rule="evenodd" clip-rule="evenodd" fill="#1ABC9C" points="1.962,10.075 11.263,28.718 23.254,8.85 "/>
</svg>
